# xmcd CD database file
#
# Track frame offsets:
#	187
#	26517
#	51280
#	75505
#	96355
#	117722
#	145345
#	168077
#
# Disc length: 2507 seconds
#
# Revision: 0
# Processed by: cddbd v1.5.1PL0 Copyright (c) Steve Scherf et al.
# Submitted via: CDex 1.51
#
DISCID=6609c908
DTITLE=Larry Coryell and The Eleventh House - Aspects
DYEAR=1900
DGENRE=Jazz
TTITLE0=Kowloon Jag
TTITLE1=Titus
TTITLE2=Pyramids
TTITLE3=Rodrigo Reflections
TTITLE4=Yin-Yang
TTITLE5=Woman of Truth And Future
TTITLE6=Ain't It Is
TTITLE7=Aspects
EXTD=
EXTT0=
EXTT1=
EXTT2=
EXTT3=
EXTT4=
EXTT5=
EXTT6=
EXTT7=
PLAYORDER=
